<svg width="624" height="624" viewBox="0 0 624 624" fill="none" xmlns="http://www.w3.org/2000/svg">
<g filter="url(#filter0_f_2208_1259)">
<rect x="8" y="8" width="120" height="120" fill="#E9E9E9"/>
<path d="M71.4298 67.448L76.4458 70.22L74.7298 73.212L69.6258 70.22L69.6698 75.896H66.3258L66.3698 70.264L61.3098 73.212L59.5498 70.22L64.6098 67.448L59.5498 64.676L61.3098 61.64L66.3698 64.632L66.3258 59H69.6698L69.6258 64.676L74.7298 61.64L76.4458 64.676L71.4298 67.448Z" fill="#212529"/>
<rect x="130" y="8" width="120" height="120" fill="#E9E9E9"/>
<path d="M193.43 67.448L198.446 70.22L196.73 73.212L191.626 70.22L191.67 75.896H188.326L188.37 70.264L183.31 73.212L181.55 70.22L186.61 67.448L181.55 64.676L183.31 61.64L188.37 64.632L188.326 59H191.67L191.626 64.676L196.73 61.64L198.446 64.676L193.43 67.448Z" fill="#212529"/>
<rect x="252" y="8" width="120" height="120" fill="#E9E9E9"/>
<path d="M315.43 67.448L320.446 70.22L318.73 73.212L313.626 70.22L313.67 75.896H310.326L310.37 70.264L305.31 73.212L303.55 70.22L308.61 67.448L303.55 64.676L305.31 61.64L310.37 64.632L310.326 59H313.67L313.626 64.676L318.73 61.64L320.446 64.676L315.43 67.448Z" fill="#212529"/>
<rect x="374" y="8" width="120" height="120" fill="#E9E9E9"/>
<path d="M437.43 67.448L442.446 70.22L440.73 73.212L435.626 70.22L435.67 75.896H432.326L432.37 70.264L427.31 73.212L425.55 70.22L430.61 67.448L425.55 64.676L427.31 61.64L432.37 64.632L432.326 59H435.67L435.626 64.676L440.73 61.64L442.446 64.676L437.43 67.448Z" fill="#212529"/>
<rect x="496" y="8" width="120" height="120" fill="#E9E9E9"/>
<path d="M559.43 67.448L564.446 70.22L562.73 73.212L557.626 70.22L557.67 75.896H554.326L554.37 70.264L549.31 73.212L547.55 70.22L552.61 67.448L547.55 64.676L549.31 61.64L554.37 64.632L554.326 59H557.67L557.626 64.676L562.73 61.64L564.446 64.676L559.43 67.448Z" fill="#212529"/>
<rect x="8" y="130" width="120" height="120" fill="#E9E9E9"/>
<path d="M71.4298 189.448L76.4458 192.22L74.7298 195.212L69.6258 192.22L69.6698 197.896H66.3258L66.3698 192.264L61.3098 195.212L59.5498 192.22L64.6098 189.448L59.5498 186.676L61.3098 183.64L66.3698 186.632L66.3258 181H69.6698L69.6258 186.676L74.7298 183.64L76.4458 186.676L71.4298 189.448Z" fill="#212529"/>
<rect x="130" y="130" width="120" height="120" fill="#E9E9E9"/>
<path d="M193.43 189.448L198.446 192.22L196.73 195.212L191.626 192.22L191.67 197.896H188.326L188.37 192.264L183.31 195.212L181.55 192.22L186.61 189.448L181.55 186.676L183.31 183.64L188.37 186.632L188.326 181H191.67L191.626 186.676L196.73 183.64L198.446 186.676L193.43 189.448Z" fill="#212529"/>
<rect x="252" y="130" width="120" height="120" fill="#E9E9E9"/>
<path d="M315.43 189.448L320.446 192.22L318.73 195.212L313.626 192.22L313.67 197.896H310.326L310.37 192.264L305.31 195.212L303.55 192.22L308.61 189.448L303.55 186.676L305.31 183.64L310.37 186.632L310.326 181H313.67L313.626 186.676L318.73 183.64L320.446 186.676L315.43 189.448Z" fill="#212529"/>
<rect x="374" y="130" width="120" height="120" fill="#E9E9E9"/>
<path d="M437.43 189.448L442.446 192.22L440.73 195.212L435.626 192.22L435.67 197.896H432.326L432.37 192.264L427.31 195.212L425.55 192.22L430.61 189.448L425.55 186.676L427.31 183.64L432.37 186.632L432.326 181H435.67L435.626 186.676L440.73 183.64L442.446 186.676L437.43 189.448Z" fill="#212529"/>
<rect x="496" y="130" width="120" height="120" fill="#E9E9E9"/>
<path d="M559.43 189.448L564.446 192.22L562.73 195.212L557.626 192.22L557.67 197.896H554.326L554.37 192.264L549.31 195.212L547.55 192.22L552.61 189.448L547.55 186.676L549.31 183.64L554.37 186.632L554.326 181H557.67L557.626 186.676L562.73 183.64L564.446 186.676L559.43 189.448Z" fill="#212529"/>
<rect x="8" y="252" width="120" height="120" fill="#E9E9E9"/>
<path d="M71.4298 311.448L76.4458 314.22L74.7298 317.212L69.6258 314.22L69.6698 319.896H66.3258L66.3698 314.264L61.3098 317.212L59.5498 314.22L64.6098 311.448L59.5498 308.676L61.3098 305.64L66.3698 308.632L66.3258 303H69.6698L69.6258 308.676L74.7298 305.64L76.4458 308.676L71.4298 311.448Z" fill="#212529"/>
<rect x="130" y="252" width="120" height="120" fill="#E9E9E9"/>
<path d="M193.43 311.448L198.446 314.22L196.73 317.212L191.626 314.22L191.67 319.896H188.326L188.37 314.264L183.31 317.212L181.55 314.22L186.61 311.448L181.55 308.676L183.31 305.64L188.37 308.632L188.326 303H191.67L191.626 308.676L196.73 305.64L198.446 308.676L193.43 311.448Z" fill="#212529"/>
<rect x="252" y="252" width="120" height="120" fill="#E9E9E9"/>
<path d="M315.43 311.448L320.446 314.22L318.73 317.212L313.626 314.22L313.67 319.896H310.326L310.37 314.264L305.31 317.212L303.55 314.22L308.61 311.448L303.55 308.676L305.31 305.64L310.37 308.632L310.326 303H313.67L313.626 308.676L318.73 305.64L320.446 308.676L315.43 311.448Z" fill="#212529"/>
<rect x="374" y="252" width="120" height="120" fill="#E9E9E9"/>
<path d="M437.43 311.448L442.446 314.22L440.73 317.212L435.626 314.22L435.67 319.896H432.326L432.37 314.264L427.31 317.212L425.55 314.22L430.61 311.448L425.55 308.676L427.31 305.64L432.37 308.632L432.326 303H435.67L435.626 308.676L440.73 305.64L442.446 308.676L437.43 311.448Z" fill="#212529"/>
<rect x="496" y="252" width="120" height="120" fill="#E9E9E9"/>
<path d="M559.43 311.448L564.446 314.22L562.73 317.212L557.626 314.22L557.67 319.896H554.326L554.37 314.264L549.31 317.212L547.55 314.22L552.61 311.448L547.55 308.676L549.31 305.64L554.37 308.632L554.326 303H557.67L557.626 308.676L562.73 305.64L564.446 308.676L559.43 311.448Z" fill="#212529"/>
<rect x="8" y="374" width="120" height="120" fill="#E9E9E9"/>
<path d="M71.4298 433.448L76.4458 436.22L74.7298 439.212L69.6258 436.22L69.6698 441.896H66.3258L66.3698 436.264L61.3098 439.212L59.5498 436.22L64.6098 433.448L59.5498 430.676L61.3098 427.64L66.3698 430.632L66.3258 425H69.6698L69.6258 430.676L74.7298 427.64L76.4458 430.676L71.4298 433.448Z" fill="#212529"/>
<rect x="130" y="374" width="120" height="120" fill="#E9E9E9"/>
<path d="M193.43 433.448L198.446 436.22L196.73 439.212L191.626 436.22L191.67 441.896H188.326L188.37 436.264L183.31 439.212L181.55 436.22L186.61 433.448L181.55 430.676L183.31 427.64L188.37 430.632L188.326 425H191.67L191.626 430.676L196.73 427.64L198.446 430.676L193.43 433.448Z" fill="#212529"/>
<rect x="252" y="374" width="120" height="120" fill="#E9E9E9"/>
<path d="M315.43 433.448L320.446 436.22L318.73 439.212L313.626 436.22L313.67 441.896H310.326L310.37 436.264L305.31 439.212L303.55 436.22L308.61 433.448L303.55 430.676L305.31 427.64L310.37 430.632L310.326 425H313.67L313.626 430.676L318.73 427.64L320.446 430.676L315.43 433.448Z" fill="#212529"/>
<rect x="374" y="374" width="120" height="120" fill="#E9E9E9"/>
<path d="M437.43 433.448L442.446 436.22L440.73 439.212L435.626 436.22L435.67 441.896H432.326L432.37 436.264L427.31 439.212L425.55 436.22L430.61 433.448L425.55 430.676L427.31 427.64L432.37 430.632L432.326 425H435.67L435.626 430.676L440.73 427.64L442.446 430.676L437.43 433.448Z" fill="#212529"/>
<rect x="496" y="374" width="120" height="120" fill="#E9E9E9"/>
<path d="M559.43 433.448L564.446 436.22L562.73 439.212L557.626 436.22L557.67 441.896H554.326L554.37 436.264L549.31 439.212L547.55 436.22L552.61 433.448L547.55 430.676L549.31 427.64L554.37 430.632L554.326 425H557.67L557.626 430.676L562.73 427.64L564.446 430.676L559.43 433.448Z" fill="#212529"/>
<rect x="8" y="496" width="120" height="120" fill="#E9E9E9"/>
<path d="M71.4298 555.448L76.4458 558.22L74.7298 561.212L69.6258 558.22L69.6698 563.896H66.3258L66.3698 558.264L61.3098 561.212L59.5498 558.22L64.6098 555.448L59.5498 552.676L61.3098 549.64L66.3698 552.632L66.3258 547H69.6698L69.6258 552.676L74.7298 549.64L76.4458 552.676L71.4298 555.448Z" fill="#212529"/>
<rect x="130" y="496" width="120" height="120" fill="#E9E9E9"/>
<path d="M193.43 555.448L198.446 558.22L196.73 561.212L191.626 558.22L191.67 563.896H188.326L188.37 558.264L183.31 561.212L181.55 558.22L186.61 555.448L181.55 552.676L183.31 549.64L188.37 552.632L188.326 547H191.67L191.626 552.676L196.73 549.64L198.446 552.676L193.43 555.448Z" fill="#212529"/>
<rect x="252" y="496" width="120" height="120" fill="#E9E9E9"/>
<path d="M315.43 555.448L320.446 558.22L318.73 561.212L313.626 558.22L313.67 563.896H310.326L310.37 558.264L305.31 561.212L303.55 558.22L308.61 555.448L303.55 552.676L305.31 549.64L310.37 552.632L310.326 547H313.67L313.626 552.676L318.73 549.64L320.446 552.676L315.43 555.448Z" fill="#212529"/>
<rect x="374" y="496" width="120" height="120" fill="#E9E9E9"/>
<path d="M437.43 555.448L442.446 558.22L440.73 561.212L435.626 558.22L435.67 563.896H432.326L432.37 558.264L427.31 561.212L425.55 558.22L430.61 555.448L425.55 552.676L427.31 549.64L432.37 552.632L432.326 547H435.67L435.626 552.676L440.73 549.64L442.446 552.676L437.43 555.448Z" fill="#212529"/>
<rect x="496" y="496" width="120" height="120" fill="#E9E9E9"/>
<path d="M559.43 555.448L564.446 558.22L562.73 561.212L557.626 558.22L557.67 563.896H554.326L554.37 558.264L549.31 561.212L547.55 558.22L552.61 555.448L547.55 552.676L549.31 549.64L554.37 552.632L554.326 547H557.67L557.626 552.676L562.73 549.64L564.446 552.676L559.43 555.448Z" fill="#212529"/>
</g>
<defs>
<filter id="filter0_f_2208_1259" x="0" y="0" width="624" height="624" filterUnits="userSpaceOnUse" color-interpolation-filters="sRGB">
<feFlood flood-opacity="0" result="BackgroundImageFix"/>
<feBlend mode="normal" in="SourceGraphic" in2="BackgroundImageFix" result="shape"/>
<feGaussianBlur stdDeviation="4" result="effect1_foregroundBlur_2208_1259"/>
</filter>
</defs>
</svg>
